# Blender 4.2.3 LTS
# www.blender.org
mtllib lane.mtl
o Plane_Plane.001
v 0.500000 0.077100 -9.000026
v -0.499999 0.077100 -9.000026
v 0.500000 0.083954 8.999969
v -0.499999 0.083954 8.999969
v 0.500000 -0.083954 -8.999965
v -0.499999 -0.083954 -8.999965
v 0.500000 -0.077099 9.000030
v -0.499999 -0.077099 9.000030
vn -0.0000 1.0000 -0.0004
vn -0.0000 -1.0000 0.0004
vn 1.0000 -0.0000 -0.0000
vn -0.0000 0.0004 1.0000
vn -0.0000 -0.0004 -1.0000
vn -1.0000 -0.0000 -0.0000
vt 13.537570 -1.363601
vt 13.537570 2.363601
vt -12.538339 2.363601
vt -12.538339 -1.363601
vt 0.305664 0.388671
vt 0.305664 0.000000
vt 0.314057 0.000000
vt 0.314057 0.388671
vt 0.315107 0.999998
vt 0.314582 1.000000
vt 0.314582 0.000002
vt 0.315107 0.000000
vt 0.315633 0.000000
vt 0.315633 0.055555
vt 0.315107 0.055555
vt 0.316158 0.000000
vt 0.316158 0.055555
vt 0.314057 0.999996
s 0
usemtl Floor
f 4/1/1 3/2/1 1/3/1 2/4/1
f 8/5/2 6/6/2 5/7/2 7/8/2
f 3/9/3 7/10/3 5/11/3 1/12/3
f 4/12/4 8/13/4 7/14/4 3/15/4
f 1/13/5 5/16/5 6/17/5 2/14/5
f 2/10/6 6/18/6 8/7/6 4/11/6
